<svg xmlns="http://www.w3.org/2000/svg" viewBox="0 0 32 32" width="32" height="32">
  <defs>
    <linearGradient id="cupGradient" x1="0%" y1="0%" x2="100%" y2="100%">
      <stop offset="0%" style="stop-color:#e28f64;stop-opacity:1" />
      <stop offset="100%" style="stop-color:#5d4037;stop-opacity:1" />
    </linearGradient>
    <linearGradient id="steamGradient" x1="0%" y1="100%" x2="0%" y2="0%">
      <stop offset="0%" style="stop-color:#ffffff;stop-opacity:0.8" />
      <stop offset="100%" style="stop-color:#ffffff;stop-opacity:0.3" />
    </linearGradient>
  </defs>
  
  <!-- Coffee cup body -->
  <path d="M8 12 L8 24 Q8 26 10 26 L20 26 Q22 26 22 24 L22 12 Z" fill="url(#cupGradient)" stroke="#2c1810" stroke-width="0.5"/>
  
  <!-- Coffee cup handle -->
  <path d="M22 16 Q26 16 26 20 Q26 24 22 24" fill="none" stroke="#5d4037" stroke-width="1.5" stroke-linecap="round"/>
  
  <!-- Coffee surface -->
  <ellipse cx="15" cy="12" rx="7" ry="1.5" fill="#2c1810"/>
  
  <!-- Steam lines -->
  <path d="M12 8 Q11 6 12 4 Q13 6 12 8" fill="url(#steamGradient)" stroke="none"/>
  <path d="M15 9 Q14 7 15 5 Q16 7 15 9" fill="url(#steamGradient)" stroke="none"/>
  <path d="M18 8 Q17 6 18 4 Q19 6 18 8" fill="url(#steamGradient)" stroke="none"/>
  
  <!-- Coffee bean accent -->
  <ellipse cx="25" cy="8" rx="2" ry="3" fill="#5d4037" transform="rotate(45 25 8)" opacity="0.6"/>
  <path d="M25 6 L25 10" stroke="#2c1810" stroke-width="0.5" transform="rotate(45 25 8)"/>
</svg>